REM DIRINDEX 1\5,1\2\6,1\2\7,1\3\8,1\3\9,1\4\10,1\4\11,1\4\12
REM DIRNAME cjc026,folder01,folder02,folder03,folder04,folder05,folder06,folder07,folder08,folder09,folder10,folder11
TITLE ""
FILE "EJE_DB3000_5th_5C_24.mp3" MP3
  TRACK 01 AUDIO
    TITLE "0:"
    INDEX 01 00:00:00
  TRACK 02 AUDIO
    TITLE "10:cjc026_11061"
    INDEX 01 00:00:08
  TRACK 03 AUDIO
    TITLE "0:"
    INDEX 01 00:01:22
  TRACK 04 AUDIO
    TITLE "11:cjc026_11062"
    INDEX 01 00:01:57
  TRACK 05 AUDIO
    TITLE "0:"
    INDEX 01 00:03:39
  TRACK 06 AUDIO
    TITLE "12:cjc026_11063"
    INDEX 01 00:03:74
  TRACK 07 AUDIO
    TITLE "0:"
    INDEX 01 00:05:13
  TRACK 08 AUDIO
    TITLE "10:cjc026_11064"
    INDEX 01 00:05:48
  TRACK 09 AUDIO
    TITLE "0:"
    INDEX 01 00:06:68
  TRACK 10 AUDIO
    TITLE "11:cjc026_11065"
    INDEX 01 00:07:28
  TRACK 11 AUDIO
    TITLE "0:"
    INDEX 01 00:08:58
  TRACK 12 AUDIO
    TITLE "12:cjc026_11066"
    INDEX 01 00:09:18
  TRACK 13 AUDIO
    TITLE "0:"
    INDEX 01 00:10:38
  TRACK 14 AUDIO
    TITLE "10:cjc026_11067"
    INDEX 01 00:10:73
  TRACK 15 AUDIO
    TITLE "0:"
    INDEX 01 00:13:34
  TRACK 16 AUDIO
    TITLE "11:cjc026_11068"
    INDEX 01 00:13:69
  TRACK 17 AUDIO
    TITLE "0:"
    INDEX 01 00:15:41
  TRACK 18 AUDIO
    TITLE "12:cjc026_11069"
    INDEX 01 00:16:01
  TRACK 19 AUDIO
    TITLE "0:"
    INDEX 01 00:18:40
  TRACK 20 AUDIO
    TITLE "10:cjc026_11070"
    INDEX 01 00:18:72
  TRACK 21 AUDIO
    TITLE "0:"
    INDEX 01 00:20:25
  TRACK 22 AUDIO
    TITLE "11:cjc026_11071"
    INDEX 01 00:20:60
  TRACK 23 AUDIO
    TITLE "0:"
    INDEX 01 00:23:08
  TRACK 24 AUDIO
    TITLE "12:cjc026_11072"
    INDEX 01 00:23:43
  TRACK 25 AUDIO
    TITLE "0:"
    INDEX 01 00:24:71
  TRACK 26 AUDIO
    TITLE "10:cjc026_11073"
    INDEX 01 00:25:31
  TRACK 27 AUDIO
    TITLE "0:"
    INDEX 01 00:26:50
  TRACK 28 AUDIO
    TITLE "11:cjc026_11074"
    INDEX 01 00:27:10
  TRACK 29 AUDIO
    TITLE "0:"
    INDEX 01 00:28:41
  TRACK 30 AUDIO
    TITLE "12:cjc026_11075"
    INDEX 01 00:28:73
  TRACK 31 AUDIO
    TITLE "0:"
    INDEX 01 00:30:18
  TRACK 32 AUDIO
    TITLE "10:cjc026_11076"
    INDEX 01 00:30:53
  TRACK 33 AUDIO
    TITLE "0:"
    INDEX 01 00:32:03
  TRACK 34 AUDIO
    TITLE "11:cjc026_11077"
    INDEX 01 00:32:40
  TRACK 35 AUDIO
    TITLE "0:"
    INDEX 01 00:34:01
  TRACK 36 AUDIO
    TITLE "12:cjc026_11078"
    INDEX 01 00:34:36
  TRACK 37 AUDIO
    TITLE "0:"
    INDEX 01 00:35:64
  TRACK 38 AUDIO
    TITLE "10:cjc026_11079"
    INDEX 01 00:36:24
  TRACK 39 AUDIO
    TITLE "0:"
    INDEX 01 00:37:54
  TRACK 40 AUDIO
    TITLE "11:cjc026_11080"
    INDEX 01 00:38:17
  TRACK 41 AUDIO
    TITLE "0:"
    INDEX 01 00:39:58
  TRACK 42 AUDIO
    TITLE "12:cjc026_11081"
    INDEX 01 00:40:18
  TRACK 43 AUDIO
    TITLE "0:"
    INDEX 01 00:41:48
  TRACK 44 AUDIO
    TITLE "10:cjc026_11082"
    INDEX 01 00:42:09
  TRACK 45 AUDIO
    TITLE "0:"
    INDEX 01 00:43:28
  TRACK 46 AUDIO
    TITLE "11:cjc026_11083"
    INDEX 01 00:43:69
  TRACK 47 AUDIO
    TITLE "0:"
    INDEX 01 00:45:18
  TRACK 48 AUDIO
    TITLE "12:cjc026_11084"
    INDEX 01 00:45:54
  TRACK 49 AUDIO
    TITLE "0:"
    INDEX 01 00:47:01
  TRACK 50 AUDIO
    TITLE "10:cjc026_11085"
    INDEX 01 00:47:39
  TRACK 51 AUDIO
    TITLE "0:"
    INDEX 01 00:50:59
  TRACK 52 AUDIO
    TITLE "11:cjc026_11086"
    INDEX 01 00:51:22
  TRACK 53 AUDIO
    TITLE "0:"
    INDEX 01 00:53:56
  TRACK 54 AUDIO
    TITLE "12:cjc026_11087"
    INDEX 01 00:54:18
  TRACK 55 AUDIO
    TITLE "0:"
    INDEX 01 00:57:36
  TRACK 56 AUDIO
    TITLE "10:cjc026_11088"
    INDEX 01 00:57:74
  TRACK 57 AUDIO
    TITLE "0:"
    INDEX 01 01:01:25
  TRACK 58 AUDIO
    TITLE "11:cjc026_11089"
    INDEX 01 01:01:60
  TRACK 59 AUDIO
    TITLE "0:"
    INDEX 01 01:03:27
  TRACK 60 AUDIO
    TITLE "12:cjc026_11090"
    INDEX 01 01:03:64
  TRACK 61 AUDIO
    TITLE "0:"
    INDEX 01 01:07:13
  TRACK 62 AUDIO
    TITLE "10:cjc026_11091"
    INDEX 01 01:07:51
  TRACK 63 AUDIO
    TITLE "0:"
    INDEX 01 01:09:09
  TRACK 64 AUDIO
    TITLE "11:cjc026_11092"
    INDEX 01 01:09:46
  TRACK 65 AUDIO
    TITLE "0:"
    INDEX 01 01:10:74
  TRACK 66 AUDIO
    TITLE "12:cjc026_11093"
    INDEX 01 01:11:34
  TRACK 67 AUDIO
    TITLE "0:"
    INDEX 01 01:12:67
  TRACK 68 AUDIO
    TITLE "10:cjc026_11094"
    INDEX 01 01:13:35
  TRACK 69 AUDIO
    TITLE "0:"
    INDEX 01 01:15:07
  TRACK 70 AUDIO
    TITLE "11:cjc026_11095"
    INDEX 01 01:15:44
  TRACK 71 AUDIO
    TITLE "0:"
    INDEX 01 01:18:44
  TRACK 72 AUDIO
    TITLE "12:cjc026_11096"
    INDEX 01 01:19:06
  TRACK 73 AUDIO
    TITLE "0:"
    INDEX 01 01:20:53
  TRACK 74 AUDIO
    TITLE "10:cjc026_11097"
    INDEX 01 01:21:13
  TRACK 75 AUDIO
    TITLE "0:"
    INDEX 01 01:23:17
  TRACK 76 AUDIO
    TITLE "11:cjc026_11098"
    INDEX 01 01:23:55
  TRACK 77 AUDIO
    TITLE "0:"
    INDEX 01 01:26:48
  TRACK 78 AUDIO
    TITLE "12:cjc026_11099"
    INDEX 01 01:27:09
  TRACK 79 AUDIO
    TITLE "0:"
    INDEX 01 01:29:10
  TRACK 80 AUDIO
    TITLE "10:cjc026_11100"
    INDEX 01 01:29:45
  TRACK 81 AUDIO
    TITLE "0:"
    INDEX 01 01:31:49
  TRACK 82 AUDIO
    TITLE "11:cjc026_11101"
    INDEX 01 01:32:12
  TRACK 83 AUDIO
    TITLE "0:"
    INDEX 01 01:35:11
  TRACK 84 AUDIO
    TITLE "12:cjc026_11102"
    INDEX 01 01:35:43
  TRACK 85 AUDIO
    TITLE "0:"
    INDEX 01 01:37:47
  TRACK 86 AUDIO
    TITLE "10:cjc026_11103"
    INDEX 01 01:38:07
  TRACK 87 AUDIO
    TITLE "0:"
    INDEX 01 01:40:24
  TRACK 88 AUDIO
    TITLE "11:cjc026_11104"
    INDEX 01 01:40:60
  TRACK 89 AUDIO
    TITLE "0:"
    INDEX 01 01:43:53
  TRACK 90 AUDIO
    TITLE "12:cjc026_11105"
    INDEX 01 01:44:16
  TRACK 91 AUDIO
    TITLE "0:"
    INDEX 01 01:46:31
